# xmcd
#
# Track frame offsets:
#	150
#	16025
#	33483
#	50025
#	62843
#	81763
#	101341
#	117847
#	134175
#	146115
#	160575
#	174225
#
# Disc length: 2580 seconds
#
# Revision: 3
# Processed by: cddbd v1.5.1PL0 Copyright (c) Steve Scherf et al.
# Submitted via: MusicWizard 7.1.1b
#
DISCID=9e0a120c
DTITLE=Kenny Rogers - Greatest Hits
DYEAR=1980
DGENRE=Country
TTITLE0=The Gambler
TTITLE1=Lady
TTITLE2=Don't Fall In Love With A Dreamer (Vocal Duet By Kim Carnes)
TTITLE3=Ruby Don't Take Your Love To Town
TTITLE4=She Believes In Me
TTITLE5=Coward Of The County
TTITLE6=Lucille
TTITLE7=You Decorated My Life
TTITLE8=Reuben James
TTITLE9=Love The World Away
TTITLE10=Every Time Two Fools Collide (Vocal Duet By Dottie West)
TTITLE11=Long Arm Of The Law
EXTD=CD (c) Liberty Records Capitol DIDX 413 - CDP 7-46004-2\nReleased 1980 on LP as C 064-83003 o
EXTD=n United Artists Records Germany\n
EXTT0=
EXTT1=
EXTT2=
EXTT3=
EXTT4=
EXTT5=
EXTT6=
EXTT7=
EXTT8=
EXTT9=
EXTT10=
EXTT11=
PLAYORDER=
